<svg width="315" height="315" viewBox="0 0 315 315" fill="none" xmlns="http://www.w3.org/2000/svg">
<path d="M157.033 313.773C157.196 314.202 157.804 314.202 157.967 313.773L200.854 201.144C200.905 201.01 201.01 200.905 201.144 200.854L313.773 157.967C314.202 157.804 314.202 157.196 313.773 157.033L201.144 114.146C201.01 114.095 200.905 113.99 200.854 113.856L157.967 1.22711C157.804 0.797677 157.196 0.797678 157.033 1.22711L114.146 113.856C114.095 113.99 113.99 114.095 113.856 114.146L1.22717 157.033C0.797737 157.196 0.797738 157.804 1.22717 157.967L113.856 200.854C113.99 200.905 114.095 201.01 114.146 201.144L157.033 313.773Z" fill="url(#paint0_radial_127_65)"/>
<defs>
<radialGradient id="paint0_radial_127_65" cx="0" cy="0" r="1" gradientUnits="userSpaceOnUse" gradientTransform="translate(157.5 157.5) rotate(-90.1819) scale(157.501 157.501)">
<stop stop-color="#606E35" stop-opacity="0.63"/>
<stop offset="1" stop-color="#FBF9EC" stop-opacity="0"/>
</radialGradient>
</defs>
</svg>
